<svg width="119" height="27" viewBox="0 0 119 27" fill="none" xmlns="http://www.w3.org/2000/svg">
<path d="M23 26V23.2222C23 21.7488 22.4205 20.3357 21.3891 19.2939C20.3576 18.252 18.9587 17.6667 17.5 17.6667H6.5C5.04131 17.6667 3.64236 18.252 2.61091 19.2939C1.57946 20.3357 1 21.7488 1 23.2222V26" stroke="black" stroke-width="2" stroke-linecap="round" stroke-linejoin="round"/>
<path d="M12 12.1111C15.0376 12.1111 17.5 9.6238 17.5 6.55556C17.5 3.48731 15.0376 1 12 1C8.96243 1 6.5 3.48731 6.5 6.55556C6.5 9.6238 8.96243 12.1111 12 12.1111Z" stroke="black" stroke-width="2" stroke-linecap="round" stroke-linejoin="round"/>
<path d="M70.8409 3.21018C70.1568 2.50949 69.3445 1.95365 68.4504 1.57442C67.5563 1.19519 66.598 1 65.6302 1C64.6625 1 63.7042 1.19519 62.8101 1.57442C61.916 1.95365 61.1037 2.50949 60.4195 3.21018L58.9996 4.66368L57.5798 3.21018C56.1978 1.7955 54.3234 1.00073 52.3691 1.00073C50.4147 1.00073 48.5403 1.7955 47.1583 3.21018C45.7764 4.62487 45 6.54359 45 8.54426C45 10.5449 45.7764 12.4637 47.1583 13.8783L48.5782 15.3318L58.9996 26L69.4211 15.3318L70.8409 13.8783C71.5254 13.178 72.0684 12.3464 72.4389 11.4312C72.8093 10.5159 73 9.53496 73 8.54426C73 7.55356 72.8093 6.57258 72.4389 5.65734C72.0684 4.7421 71.5254 3.91054 70.8409 3.21018V3.21018Z" stroke="black" stroke-width="2" stroke-linecap="round" stroke-linejoin="round"/>
<path d="M98.8333 1L95 6V23.5C95 24.163 95.2692 24.7989 95.7485 25.2678C96.2278 25.7366 96.8778 26 97.5556 26H115.444C116.122 26 116.772 25.7366 117.251 25.2678C117.731 24.7989 118 24.163 118 23.5V6L114.167 1H98.8333Z" stroke="black" stroke-width="2" stroke-linecap="round" stroke-linejoin="round"/>
<path d="M95 6H118" stroke="black" stroke-width="2" stroke-linecap="round" stroke-linejoin="round"/>
<path d="M111.611 11C111.611 12.3261 111.073 13.5979 110.114 14.5355C109.156 15.4732 107.856 16 106.5 16C105.144 16 103.844 15.4732 102.886 14.5355C101.927 13.5979 101.389 12.3261 101.389 11" stroke="black" stroke-width="2" stroke-linecap="round" stroke-linejoin="round"/>
</svg>
